REM DIRINDEX 1\3,1\4,1\5,1\6,1\2\7,1\2\8,1\2\9,1\2\10,1\2\11
REM DIRNAME folder01,folder02,folder03,folder04,folder05,folder06,folder07,folder08,folder09,folder10,folder11
TITLE ""
FILE "DISC5Track25.mp3" MP3
  TRACK 01 AUDIO
    TITLE "0:"
    INDEX 01 00:00:00
  TRACK 02 AUDIO
    TITLE "3:cjc021_5481"
    INDEX 01 00:00:23
  TRACK 03 AUDIO
    TITLE "0:"
    INDEX 01 00:01:42
  TRACK 04 AUDIO
    TITLE "4:cjc021_5482"
    INDEX 01 00:03:15
  TRACK 05 AUDIO
    TITLE "0:"
    INDEX 01 00:04:36
  TRACK 06 AUDIO
    TITLE "5:cjc021_5483"
    INDEX 01 00:04:70
  TRACK 07 AUDIO
    TITLE "0:"
    INDEX 01 00:07:19
  TRACK 08 AUDIO
    TITLE "3:cjc021_5484"
    INDEX 01 00:08:56
  TRACK 09 AUDIO
    TITLE "0:"
    INDEX 01 00:09:61
  TRACK 10 AUDIO
    TITLE "4:cjc021_5485"
    INDEX 01 00:11:35
  TRACK 11 AUDIO
    TITLE "0:"
    INDEX 01 00:12:40
  TRACK 12 AUDIO
    TITLE "5:cjc021_5486"
    INDEX 01 00:13:00
  TRACK 13 AUDIO
    TITLE "0:"
    INDEX 01 00:15:64
  TRACK 14 AUDIO
    TITLE "3:cjc021_5487"
    INDEX 01 00:17:27
  TRACK 15 AUDIO
    TITLE "0:"
    INDEX 01 00:18:29
  TRACK 16 AUDIO
    TITLE "4:cjc021_5488"
    INDEX 01 00:20:06
  TRACK 17 AUDIO
    TITLE "0:"
    INDEX 01 00:21:09
  TRACK 18 AUDIO
    TITLE "5:cjc021_5489"
    INDEX 01 00:21:45
  TRACK 19 AUDIO
    TITLE "0:"
    INDEX 01 00:23:30
  TRACK 20 AUDIO
    TITLE "3:cjc021_5490"
    INDEX 01 00:24:67
  TRACK 21 AUDIO
    TITLE "0:"
    INDEX 01 00:26:03
  TRACK 22 AUDIO
    TITLE "4:cjc021_5491"
    INDEX 01 00:27:53
  TRACK 23 AUDIO
    TITLE "0:"
    INDEX 01 00:28:66
  TRACK 24 AUDIO
    TITLE "5:cjc021_5492"
    INDEX 01 00:29:25
  TRACK 25 AUDIO
    TITLE "0:"
    INDEX 01 00:33:17
  TRACK 26 AUDIO
    TITLE "3:cjc021_5493"
    INDEX 01 00:34:53
  TRACK 27 AUDIO
    TITLE "0:"
    INDEX 01 00:35:70
  TRACK 28 AUDIO
    TITLE "4:cjc021_5494"
    INDEX 01 00:37:46
  TRACK 29 AUDIO
    TITLE "0:"
    INDEX 01 00:38:61
  TRACK 30 AUDIO
    TITLE "5:cjc021_5495"
    INDEX 01 00:39:25
  TRACK 31 AUDIO
    TITLE "0:"
    INDEX 01 00:42:23
  TRACK 32 AUDIO
    TITLE "3:cjc021_5496"
    INDEX 01 00:43:60
  TRACK 33 AUDIO
    TITLE "0:"
    INDEX 01 00:44:71
  TRACK 34 AUDIO
    TITLE "4:cjc021_5497"
    INDEX 01 00:46:45
  TRACK 35 AUDIO
    TITLE "0:"
    INDEX 01 00:47:54
  TRACK 36 AUDIO
    TITLE "5:cjc021_5498"
    INDEX 01 00:48:16
  TRACK 37 AUDIO
    TITLE "0:"
    INDEX 01 00:50:35
  TRACK 38 AUDIO
    TITLE "3:cjc021_5499"
    INDEX 01 00:51:71
  TRACK 39 AUDIO
    TITLE "0:"
    INDEX 01 00:53:11
  TRACK 40 AUDIO
    TITLE "4:cjc021_5500"
    INDEX 01 00:54:62
  TRACK 41 AUDIO
    TITLE "0:"
    INDEX 01 00:56:02
  TRACK 42 AUDIO
    TITLE "5:cjc021_5501"
    INDEX 01 00:56:37
  TRACK 43 AUDIO
    TITLE "0:"
    INDEX 01 00:58:66
  TRACK 44 AUDIO
    TITLE "3:cjc021_5502"
    INDEX 01 01:00:27
  TRACK 45 AUDIO
    TITLE "0:"
    INDEX 01 01:01:33
  TRACK 46 AUDIO
    TITLE "4:cjc021_5503"
    INDEX 01 01:03:06
  TRACK 47 AUDIO
    TITLE "0:"
    INDEX 01 01:04:11
  TRACK 48 AUDIO
    TITLE "5:cjc021_5504"
    INDEX 01 01:04:45
  TRACK 49 AUDIO
    TITLE "0:"
    INDEX 01 01:07:27
  TRACK 50 AUDIO
    TITLE "3:cjc021_5505"
    INDEX 01 01:08:62
  TRACK 51 AUDIO
    TITLE "0:"
    INDEX 01 01:10:14
  TRACK 52 AUDIO
    TITLE "4:cjc021_5506"
    INDEX 01 01:11:66
  TRACK 53 AUDIO
    TITLE "0:"
    INDEX 01 01:13:18
  TRACK 54 AUDIO
    TITLE "5:cjc021_5507"
    INDEX 01 01:13:53
  TRACK 55 AUDIO
    TITLE "0:"
    INDEX 01 01:18:13
  TRACK 56 AUDIO
    TITLE "3:cjc021_5508"
    INDEX 01 01:19:50
  TRACK 57 AUDIO
    TITLE "0:"
    INDEX 01 01:20:61
  TRACK 58 AUDIO
    TITLE "4:cjc021_5509"
    INDEX 01 01:22:35
  TRACK 59 AUDIO
    TITLE "0:"
    INDEX 01 01:23:44
  TRACK 60 AUDIO
    TITLE "5:cjc021_5510"
    INDEX 01 01:24:04
  TRACK 61 AUDIO
    TITLE "0:"
    INDEX 01 01:26:11
